<?xml version="1.0" standalone="no"?><svg xmlns="http://www.w3.org/2000/svg" viewBox="0 0 1440 320"><path fill="#00c950" fill-opacity="1" d="M0,128L0,160L110.8,160L110.8,128L221.5,128L221.5,96L332.3,96L332.3,64L443.1,64L443.1,192L553.8,192L553.8,160L664.6,160L664.6,192L775.4,192L775.4,64L886.2,64L886.2,160L996.9,160L996.9,0L1107.7,0L1107.7,96L1218.5,96L1218.5,32L1329.2,32L1329.2,160L1440,160L1440,320L1329.2,320L1329.2,320L1218.5,320L1218.5,320L1107.7,320L1107.7,320L996.9,320L996.9,320L886.2,320L886.2,320L775.4,320L775.4,320L664.6,320L664.6,320L553.8,320L553.8,320L443.1,320L443.1,320L332.3,320L332.3,320L221.5,320L221.5,320L110.8,320L110.8,320L0,320L0,320Z"></path></svg>