<?xml version="1.0" standalone="no"?><svg xmlns="http://www.w3.org/2000/svg" viewBox="0 0 1440 320"><path fill="#00c950" fill-opacity="1" d="M0,96L0,224L102.9,224L102.9,320L205.7,320L205.7,192L308.6,192L308.6,160L411.4,160L411.4,64L514.3,64L514.3,192L617.1,192L617.1,160L720,160L720,224L822.9,224L822.9,128L925.7,128L925.7,192L1028.6,192L1028.6,96L1131.4,96L1131.4,64L1234.3,64L1234.3,192L1337.1,192L1337.1,192L1440,192L1440,320L1337.1,320L1337.1,320L1234.3,320L1234.3,320L1131.4,320L1131.4,320L1028.6,320L1028.6,320L925.7,320L925.7,320L822.9,320L822.9,320L720,320L720,320L617.1,320L617.1,320L514.3,320L514.3,320L411.4,320L411.4,320L308.6,320L308.6,320L205.7,320L205.7,320L102.9,320L102.9,320L0,320L0,320Z"></path></svg>