<?xml version="1.0" standalone="no"?><svg xmlns="http://www.w3.org/2000/svg" viewBox="0 0 1440 320"><path fill="#00c950" fill-opacity="1" d="M0,320L0,192L110.8,192L110.8,256L221.5,256L221.5,192L332.3,192L332.3,96L443.1,96L443.1,288L553.8,288L553.8,224L664.6,224L664.6,128L775.4,128L775.4,32L886.2,32L886.2,128L996.9,128L996.9,32L1107.7,32L1107.7,256L1218.5,256L1218.5,128L1329.2,128L1329.2,64L1440,64L1440,320L1329.2,320L1329.2,320L1218.5,320L1218.5,320L1107.7,320L1107.7,320L996.9,320L996.9,320L886.2,320L886.2,320L775.4,320L775.4,320L664.6,320L664.6,320L553.8,320L553.8,320L443.1,320L443.1,320L332.3,320L332.3,320L221.5,320L221.5,320L110.8,320L110.8,320L0,320L0,320Z"></path></svg>