<?xml version="1.0" standalone="no"?><svg xmlns="http://www.w3.org/2000/svg" viewBox="0 0 1440 320"><path fill="#00c950" fill-opacity="1" d="M0,192L0,288L57.6,288L57.6,128L115.2,128L115.2,224L172.8,224L172.8,64L230.4,64L230.4,96L288,96L288,256L345.6,256L345.6,32L403.2,32L403.2,192L460.8,192L460.8,96L518.4,96L518.4,96L576,96L576,160L633.6,160L633.6,96L691.2,96L691.2,96L748.8,96L748.8,288L806.4,288L806.4,192L864,192L864,256L921.6,256L921.6,96L979.2,96L979.2,128L1036.8,128L1036.8,192L1094.4,192L1094.4,256L1152,256L1152,320L1209.6,320L1209.6,256L1267.2,256L1267.2,224L1324.8,224L1324.8,288L1382.4,288L1382.4,288L1440,288L1440,0L1382.4,0L1382.4,0L1324.8,0L1324.8,0L1267.2,0L1267.2,0L1209.6,0L1209.6,0L1152,0L1152,0L1094.4,0L1094.4,0L1036.8,0L1036.8,0L979.2,0L979.2,0L921.6,0L921.6,0L864,0L864,0L806.4,0L806.4,0L748.8,0L748.8,0L691.2,0L691.2,0L633.6,0L633.6,0L576,0L576,0L518.4,0L518.4,0L460.8,0L460.8,0L403.2,0L403.2,0L345.6,0L345.6,0L288,0L288,0L230.4,0L230.4,0L172.8,0L172.8,0L115.2,0L115.2,0L57.6,0L57.6,0L0,0L0,0Z"></path></svg>