<?xml version="1.0" standalone="no"?><svg xmlns="http://www.w3.org/2000/svg" viewBox="0 0 1440 320"><path fill="#00c950" fill-opacity="1" d="M0,192L0,256L57.6,256L57.6,192L115.2,192L115.2,64L172.8,64L172.8,288L230.4,288L230.4,128L288,128L288,32L345.6,32L345.6,160L403.2,160L403.2,160L460.8,160L460.8,256L518.4,256L518.4,160L576,160L576,320L633.6,320L633.6,192L691.2,192L691.2,192L748.8,192L748.8,224L806.4,224L806.4,32L864,32L864,288L921.6,288L921.6,128L979.2,128L979.2,192L1036.8,192L1036.8,224L1094.4,224L1094.4,64L1152,64L1152,192L1209.6,192L1209.6,96L1267.2,96L1267.2,224L1324.8,224L1324.8,288L1382.4,288L1382.4,224L1440,224L1440,0L1382.4,0L1382.4,0L1324.8,0L1324.8,0L1267.2,0L1267.2,0L1209.6,0L1209.6,0L1152,0L1152,0L1094.4,0L1094.4,0L1036.8,0L1036.8,0L979.2,0L979.2,0L921.6,0L921.6,0L864,0L864,0L806.4,0L806.4,0L748.8,0L748.8,0L691.2,0L691.2,0L633.6,0L633.6,0L576,0L576,0L518.4,0L518.4,0L460.8,0L460.8,0L403.2,0L403.2,0L345.6,0L345.6,0L288,0L288,0L230.4,0L230.4,0L172.8,0L172.8,0L115.2,0L115.2,0L57.6,0L57.6,0L0,0L0,0Z"></path></svg>