<?xml version="1.0" standalone="no"?><svg xmlns="http://www.w3.org/2000/svg" viewBox="0 0 1440 320"><path fill="#00c950" fill-opacity="1" d="M0,192L0,160L57.6,160L57.6,96L115.2,96L115.2,64L172.8,64L172.8,256L230.4,256L230.4,96L288,96L288,128L345.6,128L345.6,192L403.2,192L403.2,224L460.8,224L460.8,320L518.4,320L518.4,256L576,256L576,224L633.6,224L633.6,96L691.2,96L691.2,224L748.8,224L748.8,128L806.4,128L806.4,288L864,288L864,160L921.6,160L921.6,192L979.2,192L979.2,288L1036.8,288L1036.8,192L1094.4,192L1094.4,192L1152,192L1152,224L1209.6,224L1209.6,128L1267.2,128L1267.2,224L1324.8,224L1324.8,192L1382.4,192L1382.4,320L1440,320L1440,0L1382.4,0L1382.4,0L1324.8,0L1324.8,0L1267.2,0L1267.2,0L1209.6,0L1209.6,0L1152,0L1152,0L1094.4,0L1094.4,0L1036.8,0L1036.8,0L979.2,0L979.2,0L921.6,0L921.6,0L864,0L864,0L806.4,0L806.4,0L748.8,0L748.8,0L691.2,0L691.2,0L633.6,0L633.6,0L576,0L576,0L518.4,0L518.4,0L460.8,0L460.8,0L403.2,0L403.2,0L345.6,0L345.6,0L288,0L288,0L230.4,0L230.4,0L172.8,0L172.8,0L115.2,0L115.2,0L57.6,0L57.6,0L0,0L0,0Z"></path></svg>